<svg xmlns="http://www.w3.org/2000/svg" viewBox="0 0 900 750" font-family="Arial, sans-serif">
  <!-- Background -->
  <rect width="900" height="750" fill="#1a1a2e"/>

  <!-- Title -->
  <text x="450" y="35" text-anchor="middle" fill="#ffffff" font-size="22" font-weight="bold">Chinese Solar Greenhouse + PTES</text>
  <text x="450" y="58" text-anchor="middle" fill="#888" font-size="13">Passive Solar Design | Łódź, Poland | 4 Strawbale Houses</text>

  <!-- Compass -->
  <g transform="translate(820, 100)">
    <circle cx="0" cy="0" r="30" fill="#16213e" stroke="#4a90d9" stroke-width="2"/>
    <text x="0" y="-15" text-anchor="middle" fill="#e94560" font-size="12" font-weight="bold">S</text>
    <text x="0" y="22" text-anchor="middle" fill="#4a90d9" font-size="10">N</text>
    <text x="-18" y="4" text-anchor="middle" fill="#888" font-size="9">W</text>
    <text x="18" y="4" text-anchor="middle" fill="#888" font-size="9">E</text>
    <polygon points="0,-8 -4,2 4,2" fill="#e94560"/>
  </g>

  <!-- Sun with rays -->
  <circle cx="200" cy="100" r="35" fill="#ffd93d"/>
  <g stroke="#ffd93d" stroke-width="3">
    <line x1="200" y1="50" x2="200" y2="35"/>
    <line x1="245" y1="70" x2="260" y2="55"/>
    <line x1="155" y1="70" x2="140" y2="55"/>
    <line x1="250" y1="100" x2="270" y2="100"/>
    <line x1="150" y1="100" x2="130" y2="100"/>
    <line x1="245" y1="130" x2="260" y2="145"/>
    <line x1="155" y1="130" x2="140" y2="145"/>
  </g>

  <!-- Sun rays entering greenhouse -->
  <g stroke="#ffd93d" stroke-width="2" stroke-dasharray="8,4" opacity="0.6">
    <line x1="230" y1="120" x2="350" y2="280"/>
    <line x1="230" y1="130" x2="420" y2="320"/>
    <line x1="230" y1="140" x2="500" y2="340"/>
    <line x1="230" y1="150" x2="580" y2="350"/>
  </g>

  <!-- Solar collectors on ground (south side) -->
  <g transform="translate(100, 400)">
    <rect x="0" y="0" width="100" height="50" rx="3" fill="#2d4a7c" stroke="#4a90d9" stroke-width="2"/>
    <rect x="8" y="8" width="25" height="34" fill="#4a90d9"/>
    <rect x="38" y="8" width="25" height="34" fill="#4a90d9"/>
    <rect x="68" y="8" width="25" height="34" fill="#4a90d9"/>
    <text x="50" y="70" text-anchor="middle" fill="#4a90d9" font-size="10">60 m²</text>
  </g>
  <g transform="translate(100, 480)">
    <rect x="0" y="0" width="100" height="50" rx="3" fill="#2d4a7c" stroke="#4a90d9" stroke-width="2"/>
    <rect x="8" y="8" width="25" height="34" fill="#4a90d9"/>
    <rect x="38" y="8" width="25" height="34" fill="#4a90d9"/>
    <rect x="68" y="8" width="25" height="34" fill="#4a90d9"/>
    <text x="50" y="70" text-anchor="middle" fill="#4a90d9" font-size="10">60 m²</text>
  </g>
  <text x="150" y="390" text-anchor="middle" fill="#4a90d9" font-size="11" font-weight="bold">SOLAR COLLECTORS</text>
  <text x="150" y="570" text-anchor="middle" fill="#4a90d9" font-size="10">Total: 120 m²</text>

  <!-- Pipe from collectors to storage -->
  <path d="M200,450 L250,450 L250,520 L320,520" stroke="#e94560" stroke-width="4" fill="none"/>
  <path d="M200,505 L270,505 L270,540 L320,540" stroke="#4a90d9" stroke-width="4" fill="none"/>
  <text x="235" y="440" fill="#e94560" font-size="9">HOT</text>
  <text x="285" y="555" fill="#4a90d9" font-size="9">RETURN</text>

  <!-- CHINESE GREENHOUSE STRUCTURE -->
  <g id="chinese-greenhouse">
    <!-- South-facing glazing (angled) -->
    <path d="M280,380 L280,220 L620,160 L620,380" fill="#87CEEB" fill-opacity="0.15" stroke="#87CEEB" stroke-width="3"/>

    <!-- Double glazing lines -->
    <line x1="290" y1="375" x2="290" y2="225" stroke="#87CEEB" stroke-width="1" opacity="0.5"/>
    <line x1="610" y1="375" x2="610" y2="165" stroke="#87CEEB" stroke-width="1" opacity="0.5"/>

    <!-- Glazing support ribs -->
    <line x1="350" y1="370" x2="350" y2="205" stroke="#87CEEB" stroke-width="1" opacity="0.4"/>
    <line x1="420" y1="365" x2="420" y2="190" stroke="#87CEEB" stroke-width="1" opacity="0.4"/>
    <line x1="490" y1="360" x2="490" y2="178" stroke="#87CEEB" stroke-width="1" opacity="0.4"/>
    <line x1="560" y1="355" x2="560" y2="168" stroke="#87CEEB" stroke-width="1" opacity="0.4"/>

    <!-- North wall (thick, insulated) -->
    <rect x="620" y="160" width="80" height="220" fill="#8B4513" stroke="#6d3610" stroke-width="3"/>
    <!-- Earth/clay texture -->
    <g fill="#a0522d" opacity="0.5">
      <rect x="630" y="170" width="20" height="15"/>
      <rect x="660" y="175" width="25" height="12"/>
      <rect x="635" y="200" width="30" height="18"/>
      <rect x="670" y="210" width="18" height="14"/>
      <rect x="628" y="240" width="22" height="16"/>
      <rect x="658" y="250" width="28" height="12"/>
      <rect x="632" y="280" width="26" height="14"/>
      <rect x="665" y="290" width="20" height="18"/>
      <rect x="630" y="320" width="24" height="15"/>
      <rect x="662" y="330" width="22" height="12"/>
      <rect x="635" y="355" width="28" height="16"/>
    </g>
    <text x="660" y="395" text-anchor="middle" fill="#8B4513" font-size="10" font-weight="bold">NORTH WALL</text>
    <text x="660" y="408" text-anchor="middle" fill="#6d3610" font-size="9">1m rammed earth</text>

    <!-- Short roof over north wall -->
    <path d="M620,160 L700,160 L720,140 L620,140 Z" fill="#555" stroke="#777" stroke-width="2"/>

    <!-- Thermal blanket (rolled up) -->
    <ellipse cx="640" cy="155" rx="15" ry="12" fill="#daa520" stroke="#b8860b" stroke-width="2"/>
    <text x="640" y="135" text-anchor="middle" fill="#daa520" font-size="8">THERMAL</text>
    <text x="640" y="145" text-anchor="middle" fill="#daa520" font-size="8">BLANKET</text>

    <!-- Growing area floor -->
    <rect x="280" y="380" width="420" height="20" fill="#3d2817" stroke="#2d1b0f" stroke-width="2"/>

    <!-- Plants -->
    <g fill="#27ae60">
      <ellipse cx="320" cy="360" rx="25" ry="20"/>
      <ellipse cx="380" cy="355" rx="30" ry="22"/>
      <ellipse cx="450" cy="350" rx="35" ry="25"/>
      <ellipse cx="530" cy="355" rx="28" ry="20"/>
      <ellipse cx="590" cy="360" rx="22" ry="18"/>
    </g>
    <g fill="#2ecc71">
      <ellipse cx="350" cy="350" rx="18" ry="15"/>
      <ellipse cx="420" cy="345" rx="22" ry="18"/>
      <ellipse cx="490" cy="342" rx="25" ry="20"/>
      <ellipse cx="560" cy="348" rx="20" ry="16"/>
    </g>
    <!-- Tomato stakes -->
    <g stroke="#8B4513" stroke-width="2">
      <line x1="380" y1="330" x2="380" y2="280"/>
      <line x1="450" y1="325" x2="450" y2="270"/>
      <line x1="530" y1="330" x2="530" y2="275"/>
    </g>
    <g fill="#e74c3c">
      <circle cx="385" cy="310" r="6"/>
      <circle cx="375" cy="295" r="5"/>
      <circle cx="455" cy="300" r="7"/>
      <circle cx="445" cy="285" r="5"/>
      <circle cx="535" cy="305" r="6"/>
    </g>

    <!-- Temperature label inside -->
    <rect x="400" y="250" width="120" height="45" rx="5" fill="#16213e" fill-opacity="0.8"/>
    <text x="460" y="270" text-anchor="middle" fill="#2ecc71" font-size="14" font-weight="bold">+25-35°C</text>
    <text x="460" y="288" text-anchor="middle" fill="#fff" font-size="10">when outside -15°C</text>

    <!-- Greenhouse label -->
    <text x="450" y="200" text-anchor="middle" fill="#87CEEB" font-size="11">DOUBLE PLASTIC FILM</text>
    <text x="340" y="245" text-anchor="middle" fill="#fff" font-size="12" transform="rotate(-15,340,245)">SOUTH-FACING GLAZING</text>
  </g>

  <!-- Concrete slab -->
  <rect x="275" y="400" width="430" height="18" fill="#555" stroke="#777" stroke-width="2"/>
  <text x="490" y="413" text-anchor="middle" fill="#fff" font-size="9">INSULATED CONCRETE SLAB</text>

  <!-- Heat rising arrows -->
  <g fill="#e94560" opacity="0.7">
    <polygon points="340,400 335,385 345,385"/>
    <polygon points="420,400 415,385 425,385"/>
    <polygon points="500,400 495,385 505,385"/>
    <polygon points="580,400 575,385 585,385"/>
  </g>

  <!-- PTES Storage -->
  <path d="M270,420 L710,420 L660,560 L320,560 Z" fill="#16213e" stroke="#0f3460" stroke-width="3"/>

  <!-- Gravel-water pattern -->
  <defs>
    <pattern id="gravelPattern2" patternUnits="userSpaceOnUse" width="25" height="25">
      <rect width="25" height="25" fill="#1a3a5c"/>
      <circle cx="6" cy="6" r="4" fill="#2a4a6c"/>
      <circle cx="18" cy="14" r="5" fill="#2a4a6c"/>
      <circle cx="10" cy="20" r="3" fill="#2a4a6c"/>
    </pattern>
    <linearGradient id="tempGradient2" x1="0%" y1="0%" x2="0%" y2="100%">
      <stop offset="0%" style="stop-color:#e94560;stop-opacity:0.4"/>
      <stop offset="100%" style="stop-color:#1a1a2e;stop-opacity:0.4"/>
    </linearGradient>
  </defs>
  <path d="M280,425 L700,425 L655,555 L325,555 Z" fill="url(#gravelPattern2)"/>
  <path d="M280,425 L700,425 L655,555 L325,555 Z" fill="url(#tempGradient2)"/>

  <!-- Storage labels -->
  <text x="490" y="465" text-anchor="middle" fill="#fff" font-size="14" font-weight="bold">GRAVEL-WATER PTES</text>
  <text x="490" y="490" text-anchor="middle" fill="#fff" font-size="18" font-weight="bold">1,000 m³</text>
  <text x="490" y="515" text-anchor="middle" fill="#ffd93d" font-size="12">60-90°C summer → 50-70°C winter</text>
  <text x="490" y="535" text-anchor="middle" fill="#aaa" font-size="10">Structural support for greenhouse above</text>

  <!-- Dimensions -->
  <text x="230" y="490" text-anchor="middle" fill="#888" font-size="10" transform="rotate(-72,230,490)">5m deep</text>
  <text x="490" y="418" text-anchor="middle" fill="#888" font-size="9">20m × 12m (top)</text>
  <text x="490" y="573" text-anchor="middle" fill="#888" font-size="9">14m × 8m (bottom)</text>

  <!-- Distribution to houses -->
  <line x1="490" y1="560" x2="490" y2="600" stroke="#4a90d9" stroke-width="4"/>
  <rect x="300" y="600" width="380" height="12" rx="6" fill="#0f3460" stroke="#4a90d9" stroke-width="2"/>

  <!-- Houses -->
  <g id="houses">
    <g transform="translate(340, 620)">
      <rect x="0" y="0" width="55" height="35" fill="#2d4a7c" stroke="#4a90d9" stroke-width="2"/>
      <polygon points="27,-18 -5,0 60,0" fill="#8B4513" stroke="#6d3610" stroke-width="2"/>
      <rect x="18" y="10" width="18" height="18" fill="#ffd93d" opacity="0.4"/>
      <text x="27" y="48" text-anchor="middle" fill="#fff" font-size="8">150m²</text>
    </g>
    <g transform="translate(420, 620)">
      <rect x="0" y="0" width="55" height="35" fill="#2d4a7c" stroke="#4a90d9" stroke-width="2"/>
      <polygon points="27,-18 -5,0 60,0" fill="#8B4513" stroke="#6d3610" stroke-width="2"/>
      <rect x="18" y="10" width="18" height="18" fill="#ffd93d" opacity="0.4"/>
      <text x="27" y="48" text-anchor="middle" fill="#fff" font-size="8">150m²</text>
    </g>
    <g transform="translate(500, 620)">
      <rect x="0" y="0" width="55" height="35" fill="#2d4a7c" stroke="#4a90d9" stroke-width="2"/>
      <polygon points="27,-18 -5,0 60,0" fill="#8B4513" stroke="#6d3610" stroke-width="2"/>
      <rect x="18" y="10" width="18" height="18" fill="#ffd93d" opacity="0.4"/>
      <text x="27" y="48" text-anchor="middle" fill="#fff" font-size="8">150m²</text>
    </g>
    <g transform="translate(580, 620)">
      <rect x="0" y="0" width="55" height="35" fill="#2d4a7c" stroke="#4a90d9" stroke-width="2"/>
      <polygon points="27,-18 -5,0 60,0" fill="#8B4513" stroke="#6d3610" stroke-width="2"/>
      <rect x="18" y="10" width="18" height="18" fill="#ffd93d" opacity="0.4"/>
      <text x="27" y="48" text-anchor="middle" fill="#fff" font-size="8">150m²</text>
    </g>
  </g>
  <text x="490" y="690" text-anchor="middle" fill="#8B4513" font-size="10">4 × Strawbale Houses | Floor heating 35-45°C</text>

  <!-- Pipes to houses -->
  <line x1="367" y1="612" x2="367" y2="620" stroke="#4a90d9" stroke-width="3"/>
  <line x1="447" y1="612" x2="447" y2="620" stroke="#4a90d9" stroke-width="3"/>
  <line x1="527" y1="612" x2="527" y2="620" stroke="#4a90d9" stroke-width="3"/>
  <line x1="607" y1="612" x2="607" y2="620" stroke="#4a90d9" stroke-width="3"/>

  <!-- Info boxes -->
  <!-- Left box: How it works -->
  <rect x="20" y="150" width="160" height="200" rx="5" fill="#16213e" stroke="#0f3460" stroke-width="2"/>
  <text x="100" y="175" text-anchor="middle" fill="#ffd93d" font-size="12" font-weight="bold">HOW IT WORKS</text>
  <line x1="30" y1="185" x2="170" y2="185" stroke="#0f3460" stroke-width="1"/>
  <text x="30" y="205" fill="#fff" font-size="9">☀️ Day: Sun heats</text>
  <text x="30" y="220" fill="#fff" font-size="9">   thermal mass wall</text>
  <text x="30" y="245" fill="#fff" font-size="9">🌙 Night: Wall releases</text>
  <text x="30" y="260" fill="#fff" font-size="9">   heat + blanket covers</text>
  <text x="30" y="285" fill="#fff" font-size="9">❄️ Extreme cold: PTES</text>
  <text x="30" y="300" fill="#fff" font-size="9">   floor provides backup</text>
  <text x="30" y="325" fill="#fff" font-size="9">🌡️ Result: +25-35°C</text>
  <text x="30" y="340" fill="#fff" font-size="9">   year-round</text>

  <!-- Right box: Specs -->
  <rect x="720" y="150" width="160" height="200" rx="5" fill="#16213e" stroke="#0f3460" stroke-width="2"/>
  <text x="800" y="175" text-anchor="middle" fill="#4a90d9" font-size="12" font-weight="bold">SPECIFICATIONS</text>
  <line x1="730" y1="185" x2="870" y2="185" stroke="#0f3460" stroke-width="1"/>
  <text x="730" y="205" fill="#fff" font-size="9">Greenhouse: 200 m²</text>
  <text x="730" y="222" fill="#fff" font-size="9">Orientation: E-W</text>
  <text x="730" y="239" fill="#fff" font-size="9">Glazing: South only</text>
  <text x="730" y="256" fill="#fff" font-size="9">North wall: 1m earth</text>
  <text x="730" y="273" fill="#fff" font-size="9">Storage: 1,000 m³</text>
  <text x="730" y="290" fill="#fff" font-size="9">Collectors: 120 m²</text>
  <text x="730" y="307" fill="#fff" font-size="9">Houses: 4 × 150 m²</text>
  <line x1="730" y1="317" x2="870" y2="317" stroke="#0f3460" stroke-width="1"/>
  <text x="730" y="335" fill="#2ecc71" font-size="9" font-weight="bold">Heat demand: 20 MWh/y</text>
  <text x="730" y="350" fill="#2ecc71" font-size="9" font-weight="bold">Solar fraction: 100%</text>

  <!-- Bottom box: Benefits -->
  <rect x="20" y="580" width="250" height="110" rx="5" fill="#16213e" stroke="#2ecc71" stroke-width="2"/>
  <text x="145" y="605" text-anchor="middle" fill="#2ecc71" font-size="12" font-weight="bold">KEY BENEFITS</text>
  <line x1="30" y1="615" x2="260" y2="615" stroke="#0f3460" stroke-width="1"/>
  <text x="30" y="635" fill="#2ecc71" font-size="10">✓ Zero heating cost (houses + greenhouse)</text>
  <text x="30" y="652" fill="#2ecc71" font-size="10">✓ Year-round food production</text>
  <text x="30" y="669" fill="#2ecc71" font-size="10">✓ 100% renewable energy</text>
  <text x="30" y="686" fill="#2ecc71" font-size="10">✓ 40-year system lifespan</text>

  <!-- Cost box -->
  <rect x="720" y="380" width="160" height="80" rx="5" fill="#16213e" stroke="#ffd93d" stroke-width="2"/>
  <text x="800" y="405" text-anchor="middle" fill="#ffd93d" font-size="12" font-weight="bold">ESTIMATED COST</text>
  <line x1="730" y1="415" x2="870" y2="415" stroke="#0f3460" stroke-width="1"/>
  <text x="800" y="438" text-anchor="middle" fill="#fff" font-size="11">Total: ~€100-120k</text>
  <text x="800" y="455" text-anchor="middle" fill="#2ecc71" font-size="13" font-weight="bold">€25-30k per house</text>

  <!-- Footer -->
  <text x="450" y="720" text-anchor="middle" fill="#555" font-size="10">Enklava Project | Łódź, Poland | Chinese Solar Greenhouse + Pit Thermal Energy Storage</text>
  <text x="450" y="735" text-anchor="middle" fill="#444" font-size="9">github.com/PawelSroczynski/inverter-curriculum</text>
</svg>